<svg width="1080" height="1080" viewBox="0 0 1080 1080" fill="none" xmlns="http://www.w3.org/2000/svg">
<path d="M444.619 442L507.82 478.489C511.767 480.768 514.198 484.979 514.198 489.537V589.619C514.198 594.177 511.767 598.388 507.82 600.667L444.619 637.156L381.418 600.667C377.471 598.388 375.04 594.177 375.04 589.619V489.537C375.04 484.979 377.471 480.768 381.418 478.489L444.619 442Z" fill="#2DC5FA"/>
<path d="M551.544 579.863C545.092 579.863 539.285 578.535 534.123 575.878C529.038 573.146 525.053 569.388 522.168 564.606C519.284 559.824 517.842 554.397 517.842 548.325C517.842 542.252 519.284 536.825 522.168 532.043C525.053 527.261 529.038 523.542 534.123 520.885C539.285 518.153 545.092 516.786 551.544 516.786C557.996 516.786 563.764 518.153 568.85 520.885C573.936 523.542 577.921 527.261 580.805 532.043C583.689 536.825 585.131 542.252 585.131 548.325C585.131 554.397 583.689 559.824 580.805 564.606C577.921 569.388 573.936 573.146 568.85 575.878C563.764 578.535 557.996 579.863 551.544 579.863ZM551.544 565.29C556.098 565.29 559.817 563.771 562.702 560.735C565.662 557.623 567.142 553.486 567.142 548.325C567.142 543.163 565.662 539.064 562.702 536.028C559.817 532.916 556.098 531.36 551.544 531.36C546.989 531.36 543.232 532.916 540.272 536.028C537.311 539.064 535.831 543.163 535.831 548.325C535.831 553.486 537.311 557.623 540.272 560.735C543.232 563.771 546.989 565.29 551.544 565.29ZM634.235 516.786C641.826 516.786 647.936 519.064 652.566 523.618C657.272 528.172 659.625 534.928 659.625 543.884V578.952H641.863V546.617C641.863 541.759 640.801 538.154 638.675 535.801C636.55 533.372 633.476 532.157 629.453 532.157C624.975 532.157 621.407 533.561 618.75 536.37C616.094 539.102 614.765 543.201 614.765 548.666V578.952H597.004V517.697H613.968V524.87C616.322 522.289 619.244 520.316 622.735 518.95C626.227 517.507 630.06 516.786 634.235 516.786ZM712.957 516.786C720.547 516.786 726.657 519.064 731.288 523.618C735.994 528.172 738.347 534.928 738.347 543.884V578.952H720.585V546.617C720.585 541.759 719.522 538.154 717.397 535.801C715.272 533.372 712.198 532.157 708.175 532.157C703.696 532.157 700.129 533.561 697.472 536.37C694.815 539.102 693.487 543.201 693.487 548.666V578.952H675.725V517.697H692.69V524.87C695.043 522.289 697.965 520.316 701.457 518.95C704.949 517.507 708.782 516.786 712.957 516.786ZM815.117 548.553C815.117 548.78 815.003 550.374 814.775 553.335H768.435C769.27 557.13 771.244 560.128 774.356 562.329C777.468 564.53 781.339 565.631 785.969 565.631C789.157 565.631 791.966 565.176 794.395 564.265C796.9 563.278 799.215 561.76 801.34 559.711L810.79 569.958C805.021 576.561 796.596 579.863 785.514 579.863C778.606 579.863 772.496 578.535 767.183 575.878C761.869 573.146 757.771 569.388 754.886 564.606C752.002 559.824 750.56 554.397 750.56 548.325C750.56 542.328 751.964 536.939 754.772 532.157C757.657 527.299 761.566 523.542 766.5 520.885C771.509 518.153 777.088 516.786 783.237 516.786C789.233 516.786 794.66 518.077 799.518 520.658C804.376 523.238 808.171 526.958 810.904 531.816C813.712 536.598 815.117 542.177 815.117 548.553ZM783.351 530.222C779.328 530.222 775.95 531.36 773.217 533.637C770.485 535.914 768.815 539.026 768.208 542.974H798.38C797.772 539.102 796.103 536.028 793.37 533.751C790.637 531.398 787.298 530.222 783.351 530.222ZM856.545 579.863C850.017 579.863 844.134 578.535 838.897 575.878C833.735 573.146 829.674 569.388 826.714 564.606C823.83 559.824 822.388 554.397 822.388 548.325C822.388 542.252 823.83 536.825 826.714 532.043C829.674 527.261 833.735 523.542 838.897 520.885C844.134 518.153 850.017 516.786 856.545 516.786C862.997 516.786 868.614 518.153 873.396 520.885C878.253 523.542 881.783 527.375 883.984 532.385L870.208 539.786C867.02 534.169 862.427 531.36 856.431 531.36C851.801 531.36 847.967 532.878 844.931 535.914C841.895 538.951 840.377 543.087 840.377 548.325C840.377 553.562 841.895 557.699 844.931 560.735C847.967 563.771 851.801 565.29 856.431 565.29C862.503 565.29 867.095 562.481 870.208 556.864L883.984 564.379C881.783 569.237 878.253 573.032 873.396 575.764C868.614 578.497 862.997 579.863 856.545 579.863ZM934.609 575.992C932.863 577.282 930.7 578.269 928.119 578.952C925.614 579.56 922.957 579.863 920.149 579.863C912.862 579.863 907.207 578.004 903.184 574.284C899.237 570.565 897.264 565.1 897.264 557.889V532.726H887.814V519.064H897.264V504.148H915.025V519.064H930.282V532.726H915.025V557.661C915.025 560.242 915.671 562.253 916.961 563.696C918.327 565.062 920.225 565.745 922.654 565.745C925.462 565.745 927.853 564.986 929.827 563.468L934.609 575.992Z" fill="#1E2434"/>
<path d="M439.381 547.642L428.678 558.8V578.952H410.347V499.252H428.678V536.484L463.974 499.252H484.468L451.45 534.776L486.404 578.952H464.885L439.381 547.642Z" fill="#FAFAFA"/>
<path d="M224.263 499.252V578.952H205.818V546.275H169.612V578.952H151.167V499.252H169.612V530.677H205.818V499.252H224.263ZM266.574 516.786C276.062 516.786 283.349 519.064 288.435 523.618C293.52 528.096 296.063 534.89 296.063 543.998V578.952H279.44V571.324C276.1 577.017 269.876 579.863 260.768 579.863C256.061 579.863 251.963 579.066 248.471 577.472C245.055 575.878 242.437 573.677 240.615 570.869C238.793 568.06 237.882 564.872 237.882 561.305C237.882 555.612 240.008 551.133 244.258 547.869C248.585 544.605 255.226 542.974 264.183 542.974H278.302C278.302 539.102 277.125 536.142 274.772 534.093C272.419 531.967 268.889 530.905 264.183 530.905C260.919 530.905 257.693 531.436 254.505 532.499C251.393 533.485 248.737 534.852 246.535 536.598L240.159 524.187C243.499 521.834 247.484 520.012 252.114 518.722C256.82 517.432 261.64 516.786 266.574 516.786ZM265.208 567.908C268.244 567.908 270.939 567.225 273.292 565.859C275.645 564.417 277.315 562.329 278.302 559.597V553.335H266.119C258.832 553.335 255.189 555.726 255.189 560.508C255.189 562.785 256.061 564.606 257.807 565.973C259.629 567.263 262.096 567.908 265.208 567.908ZM342.408 579.863C335.881 579.863 329.998 578.535 324.761 575.878C319.599 573.146 315.538 569.388 312.578 564.606C309.693 559.824 308.251 554.397 308.251 548.325C308.251 542.252 309.693 536.825 312.578 532.043C315.538 527.261 319.599 523.542 324.761 520.885C329.998 518.153 335.881 516.786 342.408 516.786C348.86 516.786 354.477 518.153 359.259 520.885C364.117 523.542 367.647 527.375 369.848 532.385L356.071 539.786C352.883 534.169 348.291 531.36 342.295 531.36C337.664 531.36 333.831 532.878 330.795 535.914C327.759 538.951 326.241 543.087 326.241 548.325C326.241 553.562 327.759 557.699 330.795 560.735C333.831 563.771 337.664 565.29 342.295 565.29C348.367 565.29 352.959 562.481 356.071 556.864L369.848 564.379C367.647 569.237 364.117 573.032 359.259 575.764C354.477 578.497 348.86 579.863 342.408 579.863Z" fill="#1E2434"/>
</svg>
